<svg xmlns="http://www.w3.org/2000/svg" xmlns:xlink="http://www.w3.org/1999/xlink" viewBox="0 0 95 110.014">
  <defs>
    <style>
      .cls-1 {
        fill: url(#linear-gradient);
      }
    </style>
    <linearGradient id="linear-gradient" x1="0.5" x2="0.5" y2="1.246" gradientUnits="objectBoundingBox">
      <stop offset="0" stop-color="#563635"/>
      <stop offset="1" stop-color="#a0a083"/>
    </linearGradient>
  </defs>
  <g id="bouquet" transform="translate(-34.938)">
    <g id="Group_2" data-name="Group 2" transform="translate(75.027 30.738)">
      <g id="Group_1" data-name="Group 1">
        <path id="Path_2" data-name="Path 2" class="cls-1" d="M228.924,143.054a7.41,7.41,0,1,0,7.41,7.41A7.418,7.418,0,0,0,228.924,143.054Zm0,11.6a4.187,4.187,0,1,1,4.187-4.187A4.192,4.192,0,0,1,228.924,154.651Z" transform="translate(-221.514 -143.054)"/>
      </g>
    </g>
    <g id="Group_4" data-name="Group 4" transform="translate(104.899 25.99)">
      <g id="Group_3" data-name="Group 3">
        <path id="Path_3" data-name="Path 3" class="cls-1" d="M367.937,120.956a7.523,7.523,0,0,0-5.276,12.738,7.413,7.413,0,0,0,5.276,2.185,7.462,7.462,0,1,0,0-14.923Zm0,11.7a4.273,4.273,0,0,1-3-7.236,4.211,4.211,0,0,1,3-1.242,4.239,4.239,0,0,1,0,8.478Z" transform="translate(-360.534 -120.956)"/>
      </g>
    </g>
    <g id="Group_6" data-name="Group 6" transform="translate(45.11 25.99)">
      <g id="Group_5" data-name="Group 5">
        <path id="Path_4" data-name="Path 4" class="cls-1" d="M89.744,120.956a7.462,7.462,0,1,0,7.462,7.462A7.535,7.535,0,0,0,89.744,120.956Zm0,11.7a4.2,4.2,0,0,1-2.97-7.208,4.214,4.214,0,0,1,2.97-1.269,4.239,4.239,0,0,1,0,8.477Z" transform="translate(-82.282 -120.956)"/>
      </g>
    </g>
    <g id="Group_8" data-name="Group 8" transform="translate(65.478 8.929)">
      <g id="Group_7" data-name="Group 7" transform="translate(0)">
        <path id="Path_5" data-name="Path 5" class="cls-1" d="M183.5,41.556a6.423,6.423,0,1,0,6.424,6.423A6.431,6.431,0,0,0,183.5,41.556Zm0,9.624a3.2,3.2,0,1,1,3.2-3.2A3.2,3.2,0,0,1,183.5,51.18Z" transform="translate(-177.072 -41.556)"/>
      </g>
    </g>
    <g id="Group_10" data-name="Group 10" transform="translate(66.443 60.139)">
      <g id="Group_9" data-name="Group 9" transform="translate(0)">
        <path id="Path_6" data-name="Path 6" class="cls-1" d="M183.174,279.885a1.612,1.612,0,0,0-1.612,1.612v2.6a1.612,1.612,0,0,0,3.223,0v-2.6A1.612,1.612,0,0,0,183.174,279.885Z" transform="translate(-181.562 -279.885)"/>
      </g>
    </g>
    <g id="Group_12" data-name="Group 12" transform="translate(95.209 60.139)">
      <g id="Group_11" data-name="Group 11">
        <path id="Path_7" data-name="Path 7" class="cls-1" d="M317.049,279.885a1.612,1.612,0,0,0-1.612,1.612v2.6a1.612,1.612,0,0,0,3.223,0v-2.6A1.612,1.612,0,0,0,317.049,279.885Z" transform="translate(-315.437 -279.885)"/>
      </g>
    </g>
    <g id="Group_14" data-name="Group 14" transform="translate(77.276 62.561)">
      <g id="Group_13" data-name="Group 13">
        <path id="Path_8" data-name="Path 8" class="cls-1" d="M241.749,291.553a1.612,1.612,0,0,0-2.274.153,3.187,3.187,0,0,1-4.673,0,1.612,1.612,0,0,0-2.427,2.121,6.408,6.408,0,0,0,9.527,0A1.612,1.612,0,0,0,241.749,291.553Z" transform="translate(-231.977 -291.155)"/>
      </g>
    </g>
    <g id="Group_16" data-name="Group 16" transform="translate(34.937)">
      <g id="Group_15" data-name="Group 15">
        <path id="Path_9" data-name="Path 9" class="cls-1" d="M127.625,31.512a10.048,10.048,0,0,0-.811-9.037,10.5,10.5,0,0,0-8.854-5.054,10.2,10.2,0,0,0-3.719.707,10.176,10.176,0,0,0-5.638-2.278,8.5,8.5,0,0,0-2.725-5.365A8.608,8.608,0,0,0,104.4,3.719,8.965,8.965,0,0,0,97.184,0a8.618,8.618,0,0,0-4.211,1.111A8.618,8.618,0,0,0,88.763,0a8.906,8.906,0,0,0-6.329,2.674A8.923,8.923,0,0,0,76.113,0,8.619,8.619,0,0,0,71.9,1.111,8.618,8.618,0,0,0,67.691,0a8.965,8.965,0,0,0-7.213,3.719A8.608,8.608,0,0,0,59,10.486a8.5,8.5,0,0,0-2.725,5.365,10.177,10.177,0,0,0-5.638,2.278,10.2,10.2,0,0,0-3.719-.707,10.5,10.5,0,0,0-8.854,5.054,10.047,10.047,0,0,0-.81,9.037,10.159,10.159,0,0,0-1.5,10.436A10.533,10.533,0,0,0,39.084,46.3a74.074,74.074,0,0,0,4.864,13.1,1.612,1.612,0,0,0,2.9-1.412,69.542,69.542,0,0,1-3.877-9.846,10.222,10.222,0,0,0,2.254.248s.418,0,.62-.016l.036.052A10.263,10.263,0,0,0,50.2,52.155a10.491,10.491,0,0,0,13.974-5.646,10.756,10.756,0,0,0,.357-1.1,10.517,10.517,0,0,0,2.635-1.1c0,.024-.007.049-.011.073a10.226,10.226,0,0,0,.192,4.245,10.48,10.48,0,0,0,5.476,6.614,10.285,10.285,0,0,0,9.551-.284l.061-.033.061.033q.208.119.42.226A10.168,10.168,0,0,0,87.008,56.3,10.515,10.515,0,0,0,97.524,48.64l0-.013a10.192,10.192,0,0,0,.206-4.139c-.009-.058-.017-.116-.027-.173.046.027.094.05.14.076a10.484,10.484,0,0,0,2.494,1.021c.061.231.3.958.356,1.093a10.389,10.389,0,0,0,18.034,2.3c.1-.144.2-.288.3-.436.207.012.414.016.622.016a10.212,10.212,0,0,0,2.255-.249c-4.3,13.925-11.116,21.733-15.866,25.743-.078-.158-.161-.313-.255-.465a6.437,6.437,0,0,0-5.576-2.7c-3.921,0-8.9,2.2-13.772,6.077l-.057.044-.024-.007a6.829,6.829,0,0,0-2.215-.367H80.729a6.887,6.887,0,0,0-2.215.368l-.023.007-.056-.044c-4.875-3.873-9.851-6.077-13.772-6.077a6.308,6.308,0,0,0-5.835,3.171,44.075,44.075,0,0,1-8.807-10.21A1.612,1.612,0,0,0,47.3,65.412a46.322,46.322,0,0,0,10.912,12.11A17.192,17.192,0,0,0,59.9,83.354c-1.433,3.085-2.576,7.081-.813,9.933a6.217,6.217,0,0,0,5.577,2.7,13.446,13.446,0,0,0,3.364-.467,47.6,47.6,0,0,0-1.323,5.095,7.863,7.863,0,0,0,7.713,9.4H90.458a7.863,7.863,0,0,0,7.712-9.4,47.632,47.632,0,0,0-1.323-5.1,13.463,13.463,0,0,0,3.366.467,6.215,6.215,0,0,0,5.576-2.7c1.763-2.852.62-6.849-.813-9.934a17.182,17.182,0,0,0,1.686-5.835A48.326,48.326,0,0,0,119.7,61.789,73.619,73.619,0,0,0,125.8,46.3a10.531,10.531,0,0,0,3.333-4.35A10.16,10.16,0,0,0,127.625,31.512ZM77.066,83.347a3.708,3.708,0,0,1,3.664-3.658h3.417a3.661,3.661,0,0,1,.743,7.246,3.436,3.436,0,0,1-.745.082H80.73a3.723,3.723,0,0,1-3.664-3.658s0,0,0-.006S77.066,83.349,77.066,83.347Zm-12.4,9.417a3.085,3.085,0,0,1-2.835-1.172c-.863-1.4-.389-4.137,1.3-7.518a1.611,1.611,0,0,0,0-1.441,13.61,13.61,0,0,1-1.723-5.817A2.807,2.807,0,0,1,63.854,74l.038,0c2.555-.326,6.931,1.1,11.749,4.719a6.879,6.879,0,0,0-1.115,1.651c-.038.079-.317.745-.308.747a21.961,21.961,0,0,0-8.7-.577,1.611,1.611,0,0,0,.457,3.19,18.823,18.823,0,0,1,7.945.651,6.793,6.793,0,0,0,.6,1.949l.009.019A6.883,6.883,0,0,0,75.641,88a30.018,30.018,0,0,1-5.622,3.393c-.02.009-.038.019-.057.029A13.574,13.574,0,0,1,64.663,92.764Zm29.384,12.328a4.626,4.626,0,0,1-3.589,1.7H74.417a4.64,4.64,0,0,1-4.552-5.545,45.983,45.983,0,0,1,2.083-7.195,30.925,30.925,0,0,0,3.208-1.8,38.852,38.852,0,0,0,3.265-2.334l.071-.055.031.009a7.013,7.013,0,0,0,2.207.365h3.415a6.956,6.956,0,0,0,2.206-.364l.032-.01.071.055a37.807,37.807,0,0,0,3.27,2.337,30.917,30.917,0,0,0,3.2,1.792,46.039,46.039,0,0,1,2.083,7.195A4.618,4.618,0,0,1,94.047,105.092Zm9-13.5a3.085,3.085,0,0,1-2.835,1.172,13.254,13.254,0,0,1-5.357-1.376A30.025,30.025,0,0,1,89.233,88a6.876,6.876,0,0,0,1.116-1.655,7.021,7.021,0,0,0,.606-1.965,18.822,18.822,0,0,1,7.945-.651,1.611,1.611,0,0,0,.457-3.19,21.96,21.96,0,0,0-8.7.577c.005,0-.279-.686-.307-.745a6.884,6.884,0,0,0-1.116-1.654c4.458-3.348,8.539-4.821,11.148-4.763h.008a2.774,2.774,0,0,1,3.078,2.863,13.6,13.6,0,0,1-1.722,5.82,1.611,1.611,0,0,0,0,1.441C103.436,87.456,103.91,90.2,103.047,91.593ZM61.759,12.382a1.612,1.612,0,0,0,.586-1.8,5.4,5.4,0,0,1,.74-4.966,5.81,5.81,0,0,1,4.606-2.39,5.468,5.468,0,0,1,3.263,1.1,1.611,1.611,0,0,0,1.895,0,5.47,5.47,0,0,1,3.264-1.1,5.811,5.811,0,0,1,4.606,2.39,5.545,5.545,0,0,1,.74,4.966,1.636,1.636,0,0,0,.586,1.8A5.629,5.629,0,0,1,83.427,20l-.015.023c-.161-.014-.811-.045-.974-.045a10.12,10.12,0,0,0-9.386,6.056,10.09,10.09,0,0,0-3.45.975,5.284,5.284,0,0,1-2.12-1.657s0-.007,0-.011a10.47,10.47,0,0,0-7.993-9.234A5.462,5.462,0,0,1,61.759,12.382Zm2.4,26.414a10.088,10.088,0,0,0,1.194,2.846l-.008,0-.027.014a7.416,7.416,0,0,1-2.4.8,1.611,1.611,0,0,0-1.34,1.34,7.255,7.255,0,0,1-6.54,6.012,7.129,7.129,0,0,1-6.621-3.4c-.456-.761-.923-1.512-1.959-1.348-6.714,1.064-10.954-7.338-6.174-12.118a1.611,1.611,0,0,0,.3-1.871A7.121,7.121,0,0,1,50.2,21.463a1.611,1.611,0,0,0,1.871-.3c4.773-4.774,13.175-.5,12.118,6.175a1.612,1.612,0,0,0,.86,1.688,7.755,7.755,0,0,1,1.142.71A10.584,10.584,0,0,0,64.161,38.8Zm30.7,3.2-.005,0a1.612,1.612,0,0,0-.586,1.8,7.175,7.175,0,0,1-6.756,9.3,7.067,7.067,0,0,1-4.127-1.39,1.625,1.625,0,0,0-1.894,0,7.039,7.039,0,0,1-4.127,1.39,7.249,7.249,0,0,1-6.756-9.3,1.624,1.624,0,0,0-.267-1.489c-.413-.526-1.06-.881-1.513-1.385A7.134,7.134,0,0,1,70.581,30.21a6.936,6.936,0,0,1,3.6-1.008,1.611,1.611,0,0,0,1.533-1.114A6.894,6.894,0,0,1,82.437,23.2a7.136,7.136,0,0,1,6.727,4.886A1.612,1.612,0,0,0,90.7,29.2a7.184,7.184,0,0,1,7.072,6.7l0,.046A6.994,6.994,0,0,1,94.858,41.992Zm2.537-16.646v.007a5.283,5.283,0,0,1-2.12,1.657,10.094,10.094,0,0,0-3.45-.975A10.494,10.494,0,0,0,90.628,24a10.028,10.028,0,0,0-3.191-2.764c-.064-.035-.777-.4-.786-.387l.017-.038a9.064,9.064,0,0,0,.752-2.24,6.421,6.421,0,1,0-.553-5.205,8.478,8.478,0,0,0-.578-1.095,8.856,8.856,0,0,0-1.48-1.785c0-.024.007-.049.012-.073a8.884,8.884,0,0,0,.129-2.273,8.64,8.64,0,0,0-.651-2.71,5.786,5.786,0,0,1,4.467-2.208,5.47,5.47,0,0,1,3.263,1.1,1.612,1.612,0,0,0,1.895,0,5.469,5.469,0,0,1,3.263-1.1,5.811,5.811,0,0,1,4.606,2.39,5.4,5.4,0,0,1,.74,4.966,1.611,1.611,0,0,0,.586,1.8,5.463,5.463,0,0,1,2.272,3.727,10.535,10.535,0,0,0-5.183,2.968l-.053.054A10.183,10.183,0,0,0,97.395,25.346Zm-7.622-9.993a3.2,3.2,0,1,1,3.2,3.2A3.2,3.2,0,0,1,89.773,15.353ZM126.15,40.715a7.136,7.136,0,0,1-6.033,4.435h-.011a11.381,11.381,0,0,1-1.784-.089,1.608,1.608,0,0,0-1.6.867,7.233,7.233,0,0,1-2.592,2.88l-.02.012a7.283,7.283,0,0,1-10.644-4.193,7.918,7.918,0,0,1-.176-.827,1.629,1.629,0,0,0-1.34-1.34,14,14,0,0,1-2.431-.824,10.308,10.308,0,0,0,1.038-8.311l-.008-.027a10.545,10.545,0,0,0-1.867-3.561,7.756,7.756,0,0,1,1.142-.71,1.611,1.611,0,0,0,.86-1.688,7.268,7.268,0,0,1,7.142-8.3,6.916,6.916,0,0,1,4.976,2.125,1.612,1.612,0,0,0,1.871.3,7.121,7.121,0,0,1,9.617,9.617,1.612,1.612,0,0,0,.3,1.871A6.931,6.931,0,0,1,126.15,40.715Z" transform="translate(-34.937 0)"/>
      </g>
    </g>
  </g>
</svg>
