<svg id="camera1" xmlns="http://www.w3.org/2000/svg" viewBox="0 0 162.732 152.561">
  <defs>
    <style>
      .cls-1 {
        fill: #fdf8f8;
      }
    </style>
  </defs>
  <g id="Group_49" data-name="Group 49" transform="translate(143.665 82.64)">
    <g id="Group_48" data-name="Group 48">
      <path id="Path_46" data-name="Path 46" class="cls-1" d="M455.185,276.01a3.175,3.175,0,1,0,3.175,3.175A3.168,3.168,0,0,0,455.185,276.01Z" transform="translate(-452.01 -276.01)"/>
    </g>
  </g>
  <g id="Group_51" data-name="Group 51" transform="translate(78.191 69.927)">
    <g id="Group_50" data-name="Group 50">
      <path id="Path_47" data-name="Path 47" class="cls-1" d="M249.185,236.01a3.175,3.175,0,1,0,3.175,3.175A3.168,3.168,0,0,0,249.185,236.01Z" transform="translate(-246.01 -236.01)"/>
    </g>
  </g>
  <g id="Group_53" data-name="Group 53" transform="translate(40.047 57.21)">
    <g id="Group_52" data-name="Group 52">
      <path id="Path_48" data-name="Path 48" class="cls-1" d="M167.319,196a41.319,41.319,0,1,0,41.319,41.319A41.365,41.365,0,0,0,167.319,196Zm0,76.281a34.962,34.962,0,1,1,34.962-34.962A35,35,0,0,1,167.319,272.281Z" transform="translate(-126 -196)"/>
    </g>
  </g>
  <g id="Group_55" data-name="Group 55" transform="translate(90.493 73.105)">
    <g id="Group_54" data-name="Group 54">
      <path id="Path_49" data-name="Path 49" class="cls-1" d="M289.439,246.408a3.178,3.178,0,0,0-3.086,5.557,22.292,22.292,0,0,1,11.485,19.467,3.178,3.178,0,0,0,6.357,0A28.652,28.652,0,0,0,289.439,246.408Z" transform="translate(-284.717 -246.007)"/>
    </g>
  </g>
  <g id="Group_57" data-name="Group 57" transform="translate(0 0)">
    <g id="Group_56" data-name="Group 56">
      <path id="Path_50" data-name="Path 50" class="cls-1" d="M153.2,66.854h-3.178V57.319a3.179,3.179,0,0,0-3.178-3.178H134.127a3.178,3.178,0,0,0-3.178,3.178v9.535H106.8a53.885,53.885,0,0,0-9.541-3.974V54.14h9.535a9.546,9.546,0,0,0,9.535-9.535V25.535A9.546,9.546,0,0,0,106.793,16H55.939A9.546,9.546,0,0,0,46.4,25.535v19.07a9.546,9.546,0,0,0,9.535,9.535h9.535v8.74a53.907,53.907,0,0,0-9.541,3.974H31.784V57.319a3.178,3.178,0,0,0-3.178-3.178H15.892a3.178,3.178,0,0,0-3.178,3.178v9.535H9.535A9.546,9.546,0,0,0,0,76.389v76.281A9.546,9.546,0,0,0,9.535,162.2h46.4a54.056,54.056,0,0,0,50.866,0h46.4a9.546,9.546,0,0,0,9.535-9.535V76.389A9.546,9.546,0,0,0,153.2,66.854ZM137.3,60.5h6.357v6.357H137.3ZM55.939,47.784a3.182,3.182,0,0,1-3.178-3.178V25.535a3.182,3.182,0,0,1,3.178-3.178h50.854a3.182,3.182,0,0,1,3.178,3.178v19.07a3.182,3.182,0,0,1-3.178,3.178ZM90.9,54.14v7.2a54.162,54.162,0,0,0-19.07,0v-7.2ZM19.07,60.5h6.357v6.357H19.07ZM6.357,76.389a3.209,3.209,0,0,1,3.178-3.21H46.554A54.362,54.362,0,0,0,35.52,85.924H6.357Zm0,15.86H32.118a54.2,54.2,0,0,0,0,44.529H6.357Zm3.178,63.6a3.182,3.182,0,0,1-3.178-3.178v-9.535H35.52a54.208,54.208,0,0,0,11.033,12.713ZM81.366,162.2a47.675,47.675,0,1,1,47.675-47.675A47.676,47.676,0,0,1,81.366,162.2Zm75.009-9.535a3.182,3.182,0,0,1-3.178,3.178H116.178a54.207,54.207,0,0,0,11.033-12.713h29.164Zm0-15.892H130.614a54.129,54.129,0,0,0,0-44.5h25.761Zm0-50.854H127.211A54.194,54.194,0,0,0,116.178,73.21H153.2a3.182,3.182,0,0,1,3.178,3.178Z" transform="translate(0 -16)"/>
    </g>
  </g>
  <g id="Group_59" data-name="Group 59" transform="translate(97.258 12.713)">
    <g id="Group_58" data-name="Group 58">
      <path id="Path_51" data-name="Path 51" class="cls-1" d="M309.178,56A3.179,3.179,0,0,0,306,59.178v6.357a3.178,3.178,0,0,0,6.357,0V59.178A3.179,3.179,0,0,0,309.178,56Z" transform="translate(-306 -56)"/>
    </g>
  </g>
</svg>
