<svg xmlns="http://www.w3.org/2000/svg" xmlns:xlink="http://www.w3.org/1999/xlink" viewBox="0 0 123 97.638">
  <defs>
    <style>
      .cls-1 {
        fill: url(#linear-gradient);
      }
    </style>
    <linearGradient id="linear-gradient" x1="0.5" x2="0.5" y2="1" gradientUnits="objectBoundingBox">
      <stop offset="0" stop-color="#563635"/>
      <stop offset="1" stop-color="#a0a083"/>
    </linearGradient>
  </defs>
  <g id="camera" transform="translate(0 -52.785)">
    <g id="Group_18" data-name="Group 18" transform="translate(0 52.785)">
      <g id="Group_17" data-name="Group 17" transform="translate(0 0)">
        <path id="Path_10" data-name="Path 10" class="cls-1" d="M113.49,65.465h-11.6L94.832,53.708c-.007-.012-.015-.022-.022-.033-.02-.032-.041-.063-.063-.094s-.033-.045-.05-.067-.04-.05-.062-.074-.043-.048-.065-.071-.039-.04-.06-.059-.05-.047-.076-.069l-.064-.052c-.026-.02-.053-.041-.08-.06s-.05-.033-.075-.049-.05-.032-.076-.046-.06-.032-.091-.048l-.069-.033c-.034-.015-.069-.029-.1-.042l-.066-.024c-.036-.012-.072-.023-.109-.033l-.071-.018c-.034-.008-.069-.015-.1-.021l-.085-.013-.092-.009c-.035,0-.07,0-.1-.005l-.044,0H55.161l-.041,0c-.037,0-.074,0-.111.006l-.086.009-.092.014-.1.019-.077.02c-.035.01-.069.019-.1.031l-.071.026c-.033.013-.066.026-.1.04l-.073.035c-.03.015-.059.03-.087.046s-.053.031-.078.048-.049.031-.074.049-.054.039-.08.06l-.063.051c-.026.022-.051.045-.075.069l-.06.06c-.022.023-.043.046-.064.07s-.042.049-.062.075-.033.044-.049.066-.043.062-.064.095c-.007.012-.015.022-.022.033L46.475,65.465H29.165V59.759a1.9,1.9,0,0,0-1.9-1.9H12.047a1.9,1.9,0,0,0-1.9,1.9v5.706H9.51A9.521,9.521,0,0,0,0,74.975v65.938a9.521,9.521,0,0,0,9.51,9.51H113.49a9.521,9.521,0,0,0,9.51-9.51V74.975A9.521,9.521,0,0,0,113.49,65.465Zm-99.541-3.8H25.361v3.8H13.949ZM113.49,146.62H29.165V74.975a1.9,1.9,0,0,0-3.8,0V146.62H9.51A5.712,5.712,0,0,1,3.8,140.913V127.472H9.511a1.9,1.9,0,1,0,0-3.8H3.8v-6.277H9.511a1.9,1.9,0,0,0,0-3.8H3.8V107.31H9.511a1.9,1.9,0,0,0,0-3.8H3.8V97.229H9.511a1.9,1.9,0,0,0,0-3.8H3.8V74.976A5.713,5.713,0,0,1,9.51,69.269H47.563a1.963,1.963,0,0,0,.211-.013l.058-.009c.056-.008.112-.019.166-.032l.057-.015c.059-.016.116-.035.172-.056l.04-.014a1.905,1.905,0,0,0,.2-.1l.033-.02c.051-.03.1-.061.15-.1l.062-.046q.061-.047.117-.1c.017-.016.035-.031.052-.047a1.791,1.791,0,0,0,.147-.161l.027-.036c.039-.051.076-.1.111-.159l.017-.024L56.237,56.59H92.124l7.054,11.756c.005.009.012.016.017.024a1.883,1.883,0,0,0,.111.159c.009.012.017.024.026.036a1.94,1.94,0,0,0,.147.161c.017.017.035.031.052.047q.057.052.117.1l.062.046c.048.034.1.066.15.1l.033.02a1.876,1.876,0,0,0,.2.1l.04.014c.056.021.113.04.172.056l.057.015c.055.013.11.024.166.032l.058.009a1.967,1.967,0,0,0,.211.013H113.49a5.712,5.712,0,0,1,5.706,5.706v65.938h0A5.713,5.713,0,0,1,113.49,146.62Z" transform="translate(0 -52.785)"/>
      </g>
    </g>
    <g id="Group_20" data-name="Group 20" transform="translate(48.183 83.217)">
      <g id="Group_19" data-name="Group 19">
        <path id="Path_11" data-name="Path 11" class="cls-1" d="M226.561,179.462a25.995,25.995,0,1,0,25.995,25.995A26.024,26.024,0,0,0,226.561,179.462Zm0,48.185a22.19,22.19,0,1,1,22.19-22.19A22.215,22.215,0,0,1,226.561,227.647Z" transform="translate(-200.566 -179.462)"/>
      </g>
    </g>
    <g id="Group_22" data-name="Group 22" transform="translate(60.868 97.856)">
      <g id="Group_21" data-name="Group 21" transform="translate(0 0)">
        <path id="Path_12" data-name="Path 12" class="cls-1" d="M277.476,242.911a8.594,8.594,0,0,0-10.8-1.1,8.589,8.589,0,0,0-10.8,13.245l9.455,9.454a1.9,1.9,0,0,0,2.69,0l9.453-9.454a8.586,8.586,0,0,0,0-12.145Zm-2.69,9.455-8.109,8.109-8.11-8.109a4.784,4.784,0,1,1,6.765-6.765,1.9,1.9,0,0,0,2.69,0,4.783,4.783,0,1,1,6.764,6.765Z" transform="translate(-253.367 -240.396)"/>
      </g>
    </g>
    <g id="Group_24" data-name="Group 24" transform="translate(55.794 60.393)">
      <g id="Group_23" data-name="Group 23">
        <path id="Path_13" data-name="Path 13" class="cls-1" d="M268.885,90.723l-2.029-5.072-.005-.012c-.017-.041-.036-.081-.055-.12-.009-.018-.017-.037-.026-.054s-.037-.063-.055-.094-.027-.048-.043-.07-.028-.038-.042-.057-.046-.064-.07-.094l-.018-.02a1.9,1.9,0,0,0-.241-.239l-.023-.018c-.039-.031-.079-.062-.121-.09s-.09-.057-.137-.084l-.016-.01a1.884,1.884,0,0,0-.315-.136l-.021-.008c-.038-.012-.077-.021-.116-.031-.022-.006-.044-.012-.066-.017s-.056-.009-.085-.014-.07-.012-.1-.016l-.063,0c-.043,0-.087-.006-.13-.006H236.168c-.047,0-.093,0-.14.007l-.053,0c-.039,0-.078.011-.116.018s-.049.007-.073.012-.053.013-.079.02-.069.017-.1.027l-.037.014c-.046.016-.092.032-.136.051l-.007,0c-.053.023-.105.048-.156.076l-.036.022c-.04.023-.08.046-.118.072s-.086.062-.127.1l-.017.013a1.908,1.908,0,0,0-.24.238l-.019.021c-.024.03-.047.062-.069.093s-.03.038-.043.058-.028.046-.042.07-.039.062-.056.095-.017.036-.026.054c-.019.039-.039.079-.055.12l-.005.012-2.029,5.072a1.9,1.9,0,1,0,3.532,1.413l1.551-3.876H263.8l1.551,3.876a1.9,1.9,0,0,0,3.532-1.413Z" transform="translate(-232.248 -84.456)"/>
      </g>
    </g>
    <g id="Group_26" data-name="Group 26" transform="translate(103.979 73.073)">
      <g id="Group_25" data-name="Group 25">
        <path id="Path_14" data-name="Path 14" class="cls-1" d="M438.531,137.237a5.708,5.708,0,1,0,5.708,5.708A5.714,5.714,0,0,0,438.531,137.237Zm0,7.611a1.9,1.9,0,1,1,1.9-1.9A1.906,1.906,0,0,1,438.531,144.848Z" transform="translate(-432.823 -137.237)"/>
      </g>
    </g>
    <g id="Group_28" data-name="Group 28" transform="translate(40.574 75.609)">
      <g id="Group_27" data-name="Group 27">
        <path id="Path_15" data-name="Path 15" class="cls-1" d="M235.089,173.2a33.6,33.6,0,1,0,0,16.387,8.241,8.241,0,0,0,0-16.387ZM202.5,211.194a29.8,29.8,0,1,1,29.158-35.954c0,.013,0,.027,0,.04a1.925,1.925,0,0,0,.088.406A29.8,29.8,0,0,1,202.5,211.194Zm33.35-25.682a33.687,33.687,0,0,0,0-8.233,4.433,4.433,0,0,1,0,8.233Z" transform="translate(-168.895 -147.792)"/>
      </g>
    </g>
    <g id="Group_30" data-name="Group 30" transform="translate(32.97 78.146)">
      <g id="Group_29" data-name="Group 29">
        <path id="Path_16" data-name="Path 16" class="cls-1" d="M146.749,158.351h-7.608a1.9,1.9,0,1,0,0,3.8h7.608a1.9,1.9,0,0,0,0-3.8Z" transform="translate(-137.239 -158.351)"/>
      </g>
    </g>
  </g>
</svg>
