<svg xmlns="http://www.w3.org/2000/svg" viewBox="0 0 118 106.319">
  <defs>
    <style>
      .cls-1 {
        fill: #fdf8f8;
      }
    </style>
  </defs>
  <g id="church" transform="translate(0 -25.341)">
    <g id="Group_32" data-name="Group 32" transform="translate(47.677 70.124)">
      <g id="Group_31" data-name="Group 31">
        <path id="Path_17" data-name="Path 17" class="cls-1" d="M227.355,221.816a7.38,7.38,0,0,0-9.163-1.016,7.375,7.375,0,0,0-9.164,11.444l7.9,7.9a1.788,1.788,0,0,0,2.528,0l7.9-7.9A7.382,7.382,0,0,0,227.355,221.816Zm-2.529,7.9-6.635,6.635-6.635-6.635a3.8,3.8,0,0,1,5.371-5.371,1.788,1.788,0,0,0,2.528,0,3.8,3.8,0,0,1,5.37,5.371Z" transform="translate(-206.868 -219.656)"/>
      </g>
    </g>
    <g id="Group_34" data-name="Group 34" transform="translate(0 25.341)">
      <g id="Group_33" data-name="Group 33">
        <path id="Path_18" data-name="Path 18" class="cls-1" d="M116.212,128.084h-5.363V92.55l2.368.861a1.788,1.788,0,0,0,1.222-3.36L88.217,80.515A1.788,1.788,0,1,0,87,83.875l20.277,7.374v36.835H82.242V74.752l1.777,1.616.032.027.068.056.068.051.068.046.077.047.068.037.084.041.07.03c.029.012.059.022.089.032l.072.024c.031.009.062.017.094.024l.071.016c.036.007.071.012.107.016l.062.008c.057.006.115.009.172.009h0a1.783,1.783,0,0,0,.537-.083l.024-.009c.048-.016.1-.033.143-.053.02-.008.038-.019.057-.028.034-.016.069-.032.1-.051s.044-.027.067-.041.058-.035.086-.054.043-.032.065-.048.054-.041.08-.063l.058-.053c.026-.025.052-.05.077-.076.009-.009.018-.017.027-.027s.017-.021.026-.031.042-.05.062-.075.033-.043.049-.066.034-.05.051-.076.03-.049.044-.074.028-.051.041-.077.026-.052.038-.079.022-.053.033-.08.021-.055.03-.083.017-.055.024-.082.016-.058.022-.087.011-.055.016-.082.011-.062.014-.092.006-.053.008-.08,0-.066.005-.1c0-.013,0-.026,0-.039V65.508c0-.013,0-.026,0-.039,0-.032,0-.065-.005-.1s0-.056-.008-.083-.008-.058-.013-.087-.01-.059-.017-.088-.013-.054-.021-.081-.016-.059-.026-.087-.019-.053-.029-.079-.021-.055-.033-.082-.025-.053-.038-.08-.025-.05-.039-.074-.031-.052-.047-.078-.03-.047-.046-.069-.035-.048-.053-.071-.037-.047-.056-.069l-.055-.061c-.023-.024-.046-.047-.07-.07s-.018-.019-.027-.027L60.788,40.878V33.922h2.98a1.788,1.788,0,0,0,0-3.576h-2.98V27.129a1.788,1.788,0,1,0-3.576,0v3.218h-2.98a1.788,1.788,0,1,0,0,3.576h2.98v6.956L31.575,64.185c-.01.009-.018.019-.028.028s-.047.045-.069.069-.038.041-.056.062-.038.045-.056.069-.036.047-.053.071-.031.046-.046.07-.032.051-.047.077-.027.05-.039.075-.026.052-.038.079-.023.055-.034.083-.02.051-.028.077-.018.059-.026.089-.014.052-.02.079-.012.059-.017.089-.009.056-.013.085-.006.057-.008.086,0,.063,0,.095c0,.014,0,.027,0,.04v9.059a1.826,1.826,0,0,0,2.99,1.8l1.777-1.616v53.333H10.727V91.249L31,83.875a1.788,1.788,0,1,0-1.222-3.36L3.561,90.05a1.788,1.788,0,1,0,1.222,3.36l2.368-.861v35.535H1.788a1.788,1.788,0,1,0,0,3.576H116.212a1.788,1.788,0,1,0,0-3.576ZM34.566,71V66.3L59,44.085,83.434,66.3V71L60.2,49.884l0,0c-.035-.032-.071-.061-.108-.089l-.032-.026c-.037-.027-.075-.051-.113-.075l-.036-.024c-.032-.019-.066-.036-.1-.053l-.057-.03c-.023-.011-.047-.019-.07-.028s-.061-.027-.093-.038l-.027-.008a1.789,1.789,0,0,0-.308-.074l-.018,0c-.05-.007-.1-.012-.152-.015a1.79,1.79,0,0,0-.792.145l-.047.019c-.024.011-.046.024-.069.036s-.059.029-.088.047l-.041.027c-.037.023-.073.046-.108.072l-.034.028c-.036.028-.072.056-.106.087l0,0Zm22.646,57.081H51.253V110.8a7.759,7.759,0,0,1,5.959-7.537Zm9.535,0H60.788v-24.82a7.759,7.759,0,0,1,5.959,7.537Zm11.919,0H70.323V110.8a11.323,11.323,0,0,0-22.646,0v17.283H39.334V71.5L59,53.622,78.666,71.5Z" transform="translate(0 -25.341)"/>
      </g>
    </g>
    <g id="Group_36" data-name="Group 36" transform="translate(16.687 94.71)">
      <g id="Group_35" data-name="Group 35">
        <path id="Path_19" data-name="Path 19" class="cls-1" d="M78.962,326.334a6.563,6.563,0,0,0-6.556,6.555v14.3a1.788,1.788,0,0,0,1.788,1.788h9.535a1.788,1.788,0,0,0,1.788-1.788v-14.3A6.563,6.563,0,0,0,78.962,326.334Zm2.979,19.07H75.982V332.889a2.98,2.98,0,1,1,5.959,0Z" transform="translate(-72.406 -326.334)"/>
      </g>
    </g>
    <g id="Group_38" data-name="Group 38" transform="translate(88.202 94.71)">
      <g id="Group_37" data-name="Group 37">
        <path id="Path_20" data-name="Path 20" class="cls-1" d="M389.262,326.334a6.563,6.563,0,0,0-6.555,6.555v14.3a1.788,1.788,0,0,0,1.788,1.788h9.535a1.788,1.788,0,0,0,1.788-1.788v-14.3A6.563,6.563,0,0,0,389.262,326.334Zm2.98,19.07h-5.96V332.889a2.98,2.98,0,1,1,5.959,0V345.4Z" transform="translate(-382.707 -326.334)"/>
      </g>
    </g>
  </g>
</svg>
