<svg xmlns="http://www.w3.org/2000/svg" viewBox="0 0 141.899 148.484">
  <defs>
    <style>
      .cls-1 {
        fill: #fdf8f8;
      }
    </style>
  </defs>
  <g id="cosmetics" transform="translate(0 0)">
    <path id="Path_56" data-name="Path 56" class="cls-1" d="M48.524,87.878H46.9V74.688a2.83,2.83,0,0,0-2.831-2.831h-.243V44.873a2.83,2.83,0,0,0-1.565-2.532l-21.9-10.955a2.831,2.831,0,0,0-4.1,2.532v37.94h-.243a2.83,2.83,0,0,0-2.831,2.831v13.19H11.555a2.83,2.83,0,0,0-2.831,2.831v74.3a2.83,2.83,0,0,0,2.831,2.831H48.523a2.83,2.83,0,0,0,2.831-2.831v-74.3A2.829,2.829,0,0,0,48.524,87.878ZM21.919,38.5l16.244,8.124V71.858H21.919ZM18.846,77.519h22.39V87.878H18.846Zm26.847,84.659H14.386V93.539H45.693Z" transform="translate(-8.724 -19.355)"/>
    <path id="Path_57" data-name="Path 57" class="cls-1" d="M220.87,304.276H128.932a2.831,2.831,0,0,0,0,5.661h87.434l-.647,1.345a21.589,21.589,0,0,1-19.35,12.162H128.932a2.831,2.831,0,0,0,0,5.661h67.437a27.279,27.279,0,0,0,24.451-15.369l2.6-5.4a2.83,2.83,0,0,0-2.551-4.058Z" transform="translate(-81.802 -189.44)"/>
    <path id="Path_58" data-name="Path 58" class="cls-1" d="M108.442,20.814a56.959,56.959,0,1,1,75.174,85.544,2.831,2.831,0,1,0,3.629,4.345A62.62,62.62,0,1,0,104.6,16.66a2.83,2.83,0,1,0,3.846,4.154Z" transform="translate(-67.848)"/>
    <path id="Path_59" data-name="Path 59" class="cls-1" d="M150.283,36.855A45.185,45.185,0,1,1,120.029,115.6a2.83,2.83,0,1,0-3.792,4.2,50.844,50.844,0,1,0-6.93-67.874,2.831,2.831,0,1,0,4.559,3.356A45.39,45.39,0,0,1,150.283,36.855Z" transform="translate(-71.003 -19.421)"/>
    <path id="Path_60" data-name="Path 60" class="cls-1" d="M214.716,105.466l-51.655,51.655a2.831,2.831,0,0,0,4,4l51.655-51.655a2.831,2.831,0,0,0-4-4Z" transform="translate(-104.297 -65.146)"/>
    <path id="Path_61" data-name="Path 61" class="cls-1" d="M204.739,179.283a2.831,2.831,0,0,0,4,4L247.525,144.5a2.831,2.831,0,1,0-4-4Z" transform="translate(-130.246 -86.958)"/>
  </g>
</svg>
