<svg xmlns="http://www.w3.org/2000/svg" viewBox="0 0 113 104.927">
  <defs>
    <style>
      .cls-1 {
        fill: #fff;
      }
    </style>
  </defs>
  <g id="wedding-cake" transform="translate(0 -18.289)">
    <g id="Group_45" data-name="Group 45" transform="translate(0 40.128)">
      <g id="Group_44" data-name="Group 44">
        <path id="Path_24" data-name="Path 24" class="cls-1" d="M111.339,197h-4.985V175.4a8.318,8.318,0,0,0-8.309-8.309H93.059v-18.28A8.318,8.318,0,0,0,84.75,140.5H79.765V125.549a8.318,8.318,0,0,0-8.309-8.309H41.544a8.318,8.318,0,0,0-8.309,8.309V140.5H28.25a8.318,8.318,0,0,0-8.309,8.309v18.28H14.956A8.318,8.318,0,0,0,6.647,175.4V197H1.662a1.662,1.662,0,1,0,0,3.323H111.338a1.662,1.662,0,0,0,0-3.323Zm-74.78-66.471h5.462a1.662,1.662,0,0,0,0-3.323H36.559v-1.661a4.991,4.991,0,0,1,4.985-4.985H71.456a4.991,4.991,0,0,1,4.985,4.985v1.661H68.132a1.665,1.665,0,0,0-1.662,1.662,1.662,1.662,0,1,1-3.324,0,1.665,1.665,0,0,0-1.662-1.662H48.667a1.662,1.662,0,0,0,0,3.323h11.44a4.987,4.987,0,0,0,9.4,0h6.931V140.5H36.559ZM23.265,153.8h6.647v1.662a4.985,4.985,0,1,0,9.971,0V153.8h16.9a4.987,4.987,0,0,0,9.4,0h5.269a1.662,1.662,0,1,0,0-3.323H64.809a1.665,1.665,0,0,0-1.662,1.662,1.662,1.662,0,1,1-3.323,0,1.665,1.665,0,0,0-1.662-1.662H38.22a1.665,1.665,0,0,0-1.662,1.662v3.324a1.662,1.662,0,1,1-3.323,0v-3.324a1.665,1.665,0,0,0-1.662-1.662H23.264v-1.661a4.991,4.991,0,0,1,4.985-4.985h56.5a4.991,4.991,0,0,1,4.985,4.985v1.661H78.1a1.662,1.662,0,1,0,0,3.323H89.735v13.295H23.265Zm79.765,23.265H94.721a1.665,1.665,0,0,0-1.662,1.662v3.324a1.662,1.662,0,1,1-3.324,0v-3.324a1.665,1.665,0,0,0-1.662-1.662H68.132a1.665,1.665,0,0,0-1.662,1.662v6.647a1.661,1.661,0,0,1-1.662,1.662,1.668,1.668,0,0,1-1.662-1.662v-6.647a1.665,1.665,0,0,0-1.662-1.662H32.524a1.662,1.662,0,0,0,0,3.323h27.3v4.985a4.985,4.985,0,0,0,9.971,0v-4.985H86.412v1.662a4.985,4.985,0,1,0,9.97,0v-1.662h6.647V197H9.971V180.387H25.877a1.662,1.662,0,0,0,0-3.323H9.971V175.4a4.991,4.991,0,0,1,4.985-4.985H98.044a4.991,4.991,0,0,1,4.985,4.985v1.661Z" transform="translate(0 -117.24)"/>
      </g>
    </g>
    <g id="Group_47" data-name="Group 47" transform="translate(46.533 18.289)">
      <g id="Group_46" data-name="Group 46">
        <path id="Path_25" data-name="Path 25" class="cls-1" d="M228.866,20.2a6.534,6.534,0,0,0-8.059-.936,6.53,6.53,0,0,0-8.062,10.165l.064.06,6.82,6.823a1.661,1.661,0,0,0,1.175.488h0a1.661,1.661,0,0,0,1.175-.487l6.884-6.884a6.523,6.523,0,0,0,0-9.23Zm-2.351,6.88-5.708,5.708L215.1,27.084l-.051-.049a3.206,3.206,0,0,1,4.534-4.532,1.662,1.662,0,0,0,2.4.05,3.2,3.2,0,1,1,4.534,4.531Z" transform="translate(-210.839 -18.289)"/>
      </g>
    </g>
  </g>
</svg>
