<svg xmlns="http://www.w3.org/2000/svg" viewBox="0 0 96 96">
  <defs>
    <style>
      .cls-1, .cls-2 {
        fill: #fff;
      }

      .cls-2 {
        opacity: 0.25;
      }
    </style>
  </defs>
  <g id="facebook" transform="translate(0 0)">
    <g id="facebook-logo" transform="translate(35.355 25.292)">
      <path id="Path_65" data-name="Path 65" class="cls-1" d="M42.6.008,37.489,0c-5.748,0-9.463,3.811-9.463,9.71v4.477H22.881a.8.8,0,0,0-.8.8v6.486a.8.8,0,0,0,.8.8h5.144V38.65a.8.8,0,0,0,.8.8h6.712a.8.8,0,0,0,.8-.8V22.283h6.015a.8.8,0,0,0,.8-.8l0-6.486a.805.805,0,0,0-.8-.8H36.347v-3.8c0-1.824.435-2.75,2.811-2.75H42.6a.8.8,0,0,0,.8-.8V.813A.8.8,0,0,0,42.6.008Z" transform="translate(-22.077)"/>
    </g>
    <circle id="Ellipse_8" data-name="Ellipse 8" class="cls-2" cx="48" cy="48" r="48"/>
  </g>
</svg>
