<svg xmlns="http://www.w3.org/2000/svg" viewBox="0 0 96 96">
  <defs>
    <style>
      .cls-1 {
        opacity: 0.79;
      }

      .cls-2, .cls-4 {
        fill: #672323;
      }

      .cls-3 {
        opacity: 0.16;
      }

      .cls-4 {
        stroke: #707070;
        opacity: 0.99;
      }

      .cls-5 {
        stroke: none;
      }

      .cls-6 {
        fill: none;
      }
    </style>
  </defs>
  <g id="instagram-p" transform="translate(-350 -4903.095)">
    <g id="instagram-logo" class="cls-1" transform="translate(376 4931.095)">
      <path id="Path_62" data-name="Path 62" class="cls-2" d="M30.409,0H11.59A11.6,11.6,0,0,0,0,11.59V30.409A11.6,11.6,0,0,0,11.59,42H30.409A11.6,11.6,0,0,0,42,30.409V11.59A11.6,11.6,0,0,0,30.409,0Zm7.864,30.409a7.873,7.873,0,0,1-7.864,7.864H11.59a7.872,7.872,0,0,1-7.864-7.864V11.59A7.873,7.873,0,0,1,11.59,3.726H30.409a7.873,7.873,0,0,1,7.864,7.864V30.409Z"/>
      <path id="Path_63" data-name="Path 63" class="cls-2" d="M51.79,40.97A10.822,10.822,0,1,0,62.612,51.792,10.834,10.834,0,0,0,51.79,40.97Zm0,17.917a7.1,7.1,0,1,1,7.1-7.1A7.1,7.1,0,0,1,51.79,58.887Z" transform="translate(-30.791 -30.792)"/>
      <path id="Path_64" data-name="Path 64" class="cls-2" d="M121.654,28.251a2.731,2.731,0,1,0,1.933.8A2.743,2.743,0,0,0,121.654,28.251Z" transform="translate(-89.378 -21.233)"/>
    </g>
    <g id="Group_72" data-name="Group 72" class="cls-3" transform="translate(268 -991.905)">
      <g id="Ellipse_9" data-name="Ellipse 9" class="cls-4" transform="translate(82 5895)">
        <circle class="cls-5" cx="48" cy="48" r="48"/>
        <circle class="cls-6" cx="48" cy="48" r="47.5"/>
      </g>
    </g>
  </g>
</svg>
