<svg xmlns="http://www.w3.org/2000/svg" viewBox="0 0 96 96">
  <defs>
    <style>
      .cls-1, .cls-2 {
        fill: #fff;
      }

      .cls-2 {
        opacity: 0.23;
      }
    </style>
  </defs>
  <g id="instagram" transform="translate(-244 0)">
    <g id="instagram-logo" transform="translate(272.259 27.906)">
      <path id="Path_62" data-name="Path 62" class="cls-1" d="M30.409,0H11.59A11.6,11.6,0,0,0,0,11.59V30.409A11.6,11.6,0,0,0,11.59,42H30.409A11.6,11.6,0,0,0,42,30.409V11.59A11.6,11.6,0,0,0,30.409,0Zm7.864,30.409a7.873,7.873,0,0,1-7.864,7.864H11.59a7.872,7.872,0,0,1-7.864-7.864V11.59A7.873,7.873,0,0,1,11.59,3.726H30.409a7.873,7.873,0,0,1,7.864,7.864V30.409Z"/>
      <path id="Path_63" data-name="Path 63" class="cls-1" d="M51.79,40.97A10.822,10.822,0,1,0,62.612,51.792,10.834,10.834,0,0,0,51.79,40.97Zm0,17.917a7.1,7.1,0,1,1,7.1-7.1A7.1,7.1,0,0,1,51.79,58.887Z" transform="translate(-30.791 -30.792)"/>
      <path id="Path_64" data-name="Path 64" class="cls-1" d="M121.654,28.251a2.731,2.731,0,1,0,1.933.8A2.743,2.743,0,0,0,121.654,28.251Z" transform="translate(-89.378 -21.233)"/>
    </g>
    <circle id="Ellipse_8" data-name="Ellipse 8" class="cls-2" cx="48" cy="48" r="48" transform="translate(244)"/>
  </g>
</svg>
