<svg xmlns="http://www.w3.org/2000/svg" viewBox="0 0 96 96">
  <defs>
    <style>
      .cls-1, .cls-2 {
        fill: #fff;
      }

      .cls-2 {
        opacity: 0.25;
      }
    </style>
  </defs>
  <g id="twitter" transform="translate(-122 0)">
    <path id="twitter-2" data-name="twitter" class="cls-1" d="M16.617,36.455a38.219,38.219,0,0,1-5.9-.469,27.7,27.7,0,0,1-8.075-2.939L0,31.6l2.857-.94C5.981,29.638,7.881,29,10.233,28a9.811,9.811,0,0,1-5.044-5.844l-.665-2.018.545.083a9.912,9.912,0,0,1-1.241-1.531,9.4,9.4,0,0,1-1.594-5.587l.125-1.761,1.054.408a9.858,9.858,0,0,1-.955-2.677,10.189,10.189,0,0,1,1.085-6.86L4.462.531,5.691,2.007a22.609,22.609,0,0,0,14.647,8.246A8.76,8.76,0,0,1,20.869,5.6a8.714,8.714,0,0,1,3.543-4.062A10.641,10.641,0,0,1,30.588.02a9.864,9.864,0,0,1,6.064,2.5,20.355,20.355,0,0,0,2.219-.741c.487-.183,1.039-.391,1.729-.629L43.144.275,41.485,5.014c.109-.009.222-.017.34-.022l2.717-.123L42.936,7.064c-.092.126-.116.161-.148.211-.129.2-.291.438-2.495,3.381a4.152,4.152,0,0,0-.776,2.7,25.573,25.573,0,0,1-1.4,10.286,18.2,18.2,0,0,1-4.886,7.238,21.58,21.58,0,0,1-10.229,4.945,31.491,31.491,0,0,1-6.389.627Zm0,0" transform="translate(148.444 30.192)"/>
    <circle id="Ellipse_8" data-name="Ellipse 8" class="cls-2" cx="48" cy="48" r="48" transform="translate(122)"/>
  </g>
</svg>
