<svg id="flags" xmlns="http://www.w3.org/2000/svg" viewBox="0 0 146.896 146.896">
  <defs>
    <style>
      .cls-1 {
        fill: #7d6167;
      }
    </style>
  </defs>
  <path id="Path_43" data-name="Path 43" class="cls-1" d="M1.557,4.553q5.09,1.815,10.254,3.364l8.2,36.175a2.344,2.344,0,0,0,4.164.885l22.23-29.739q4.262.537,8.552.905V48.949A2.344,2.344,0,0,0,58.741,50.8l14.708-11.39L88.156,50.8a2.344,2.344,0,0,0,3.779-1.853V16.144q4.291-.367,8.552-.905l22.23,29.739a2.344,2.344,0,0,0,4.164-.885L130.1,29.883a2.344,2.344,0,1,0-4.572-1.037l-2.1,9.257L105.791,14.5a212.385,212.385,0,0,0,24.152-5.109L127.605,19.7a2.344,2.344,0,1,0,4.572,1.037l2.908-12.821q5.162-1.551,10.254-3.364A2.344,2.344,0,1,0,143.764.138Q138.375,2.06,132.9,3.678a2.339,2.339,0,0,0-.859.25,207.767,207.767,0,0,1-30.574,6.454,2.355,2.355,0,0,0-.5.067q-5.777.758-11.61,1.2-7.919.594-15.908.6t-15.9-.594q-5.842-.438-11.617-1.2a2.338,2.338,0,0,0-.5-.067A207.781,207.781,0,0,1,14.857,3.928a2.336,2.336,0,0,0-.863-.251Q8.522,2.059,3.132.138A2.344,2.344,0,1,0,1.557,4.553ZM23.465,38.1,16.953,9.394A212.457,212.457,0,0,0,41.106,14.5L23.465,38.1Zm63.782-21.61V44.169L74.883,34.595a2.344,2.344,0,0,0-2.87,0L59.649,44.169V16.493q6.869.436,13.8.437T87.247,16.493Z" transform="translate(0 0)"/>
  <path id="Path_44" data-name="Path 44" class="cls-1" d="M143.763,153.082Q138.372,155,132.9,156.622a2.249,2.249,0,0,0-.85.248,207.839,207.839,0,0,1-30.58,6.456,2.344,2.344,0,0,0-.421.049c-.019,0-.038.011-.057.015q-5.742.754-11.54,1.193l-.028,0q-7.944.6-15.973.6t-15.974-.6l-.028,0q-5.8-.437-11.54-1.193l-.057-.015a2.371,2.371,0,0,0-.418-.048,207.85,207.85,0,0,1-30.583-6.456,2.251,2.251,0,0,0-.849-.248Q8.524,155,3.132,153.081A2.344,2.344,0,1,0,1.557,157.5q4.7,1.678,9.474,3.128L4.219,192.673a2.344,2.344,0,0,0,3.311,2.6l16.754-8.083,12.018,14.2a2.344,2.344,0,0,0,4.082-1.027L47.2,168.28q4.26.521,8.549.872l15.567,33.724a2.344,2.344,0,0,0,4.257,0l15.567-33.724q4.289-.351,8.549-.872l6.819,32.081a2.344,2.344,0,0,0,4.082,1.027l12.018-14.2,16.754,8.083a2.344,2.344,0,0,0,3.311-2.6l-6.812-32.049q4.767-1.452,9.474-3.128a2.344,2.344,0,1,0-1.575-4.416ZM36.792,194.711l-10.1-11.936a2.344,2.344,0,0,0-2.808-.6L9.8,188.973l5.745-27.028a212.478,212.478,0,0,0,27,5.713Zm36.655,1.59L61.086,169.521q6.157.35,12.362.353t12.362-.353Zm63.65-7.328-14.084-6.795a2.344,2.344,0,0,0-2.808.6l-10.1,11.936-5.75-27.053a212.435,212.435,0,0,0,27-5.713l5.745,27.028Z" transform="translate(0.001 -105.143)"/>
  <path id="Path_45" data-name="Path 45" class="cls-1" d="M143.765,306.026q-5.39,1.922-10.864,3.54a2.342,2.342,0,0,0-.858.25,207.754,207.754,0,0,1-30.577,6.455,2.343,2.343,0,0,0-.5.067q-5.778.759-11.611,1.2-7.919.594-15.908.6t-15.9-.594q-5.843-.438-11.618-1.2a2.326,2.326,0,0,0-.5-.067,207.806,207.806,0,0,1-30.574-6.454,2.339,2.339,0,0,0-.862-.251q-5.472-1.619-10.862-3.54a2.344,2.344,0,1,0-1.575,4.416q5.09,1.815,10.254,3.364l8.2,36.175a2.344,2.344,0,0,0,4.164.885l22.23-29.739q4.261.537,8.552.905v10.633a2.344,2.344,0,1,0,4.688,0V322.382q6.869.436,13.8.437t13.8-.437v27.676l-12.364-9.575a2.344,2.344,0,0,0-2.87,0L59.65,350.058v-8.017a2.344,2.344,0,0,0-4.688,0v12.8a2.344,2.344,0,0,0,3.779,1.853L73.449,345.3l14.708,11.39a2.344,2.344,0,0,0,3.779-1.853V322.031q4.291-.367,8.552-.905l22.23,29.739a2.344,2.344,0,0,0,4.164-.885l8.2-36.175q5.162-1.551,10.254-3.364a2.344,2.344,0,1,0-1.575-4.415Zm-120.3,37.965-6.511-28.709a212.39,212.39,0,0,0,24.153,5.109l-17.641,23.6Zm99.967,0-17.641-23.6a212.4,212.4,0,0,0,24.153-5.109l-6.511,28.709Z" transform="translate(-0.001 -210.286)"/>
</svg>
