<svg xmlns="http://www.w3.org/2000/svg" viewBox="0 0 160.021 160.021">
  <defs>
    <style>
      .cls-1 {
        fill: #7d6167;
      }
    </style>
  </defs>
  <g id="guitar" transform="translate(0)">
    <path id="Path_27" data-name="Path 27" class="cls-1" d="M4.42,55.258a9.308,9.308,0,0,0,4.061.88,12.253,12.253,0,0,0,2.611-.292c5.373-1.172,8.4-5.3,7.37-10.042h0l-5.91-27.1L37.4,13.287l4.38,20.081a11.732,11.732,0,0,0-4.672.142c-5.493,1.2-8.5,5.159-7.472,9.856.863,3.958,4.125,6.349,8.306,6.349a12.158,12.158,0,0,0,2.578-.287c5.373-1.172,8.4-5.3,7.37-10.043h0L40.017,3.275A4.167,4.167,0,0,0,35.062.1L9.185,5.741a4.16,4.16,0,0,0-3.179,4.949l6.346,29.1a11.729,11.729,0,0,0-4.672.14,10.668,10.668,0,0,0-5.824,3.166,7.456,7.456,0,0,0-1.648,6.69A7.74,7.74,0,0,0,4.42,55.258Zm35.1-10.412c-1.066.232-4.6.742-5.3-2.48-.621-2.847,2.171-3.9,3.891-4.277a8.6,8.6,0,0,1,1.8-.214,3.088,3.088,0,0,1,3.4,2.505h0c.7,3.221-2.723,4.23-3.79,4.463ZM35.549,4.789,36.4,8.707,11.554,14.127,10.7,10.211ZM5.373,46.2A6.175,6.175,0,0,1,8.68,44.51a8.6,8.6,0,0,1,1.8-.214,3.089,3.089,0,0,1,3.4,2.505h0c.7,3.222-2.723,4.232-3.79,4.464a5.728,5.728,0,0,1-3.637-.232,3.022,3.022,0,0,1-1.666-2.248A2.737,2.737,0,0,1,5.373,46.2Zm0,0" transform="translate(-0.007 -0.001)"/>
    <path id="Path_28" data-name="Path 28" class="cls-1" d="M380.235,348.674a4.136,4.136,0,0,0-2.3-2.2l-24.69-9.594a4.166,4.166,0,0,0-5.386,2.372l-10.791,27.778a11.593,11.593,0,0,0-3.964-2.486,10.671,10.671,0,0,0-6.6-.579,7.457,7.457,0,0,0-5.069,4.666,7.738,7.738,0,0,0,.487,6.888,10.235,10.235,0,0,0,5.236,4.178,11.333,11.333,0,0,0,4.1.811,7.841,7.841,0,0,0,7.593-5.109l10.043-25.851,23.707,9.211-7.451,19.179a11.6,11.6,0,0,0-3.964-2.484c-5.24-2.036-9.932-.393-11.673,4.087a7.735,7.735,0,0,0,.488,6.888,10.243,10.243,0,0,0,5.235,4.178,11.365,11.365,0,0,0,4.1.811,7.839,7.839,0,0,0,7.591-5.111l13.383-34.448a4.137,4.137,0,0,0-.071-3.184ZM328.85,375.325a5.718,5.718,0,0,1-2.9-2.2,3.028,3.028,0,0,1-.148-2.8,2.739,2.739,0,0,1,1.917-1.836,4.064,4.064,0,0,1,1.056-.129,7.389,7.389,0,0,1,2.632.551,5.942,5.942,0,0,1,2.937,2.135,2.781,2.781,0,0,1,.133,2.65C333.28,376.772,329.868,375.721,328.85,375.325Zm21.735-30.149,1.452-3.737,23.708,9.211-1.452,3.737Zm6.342,41.059a5.716,5.716,0,0,1-2.9-2.2,3.025,3.025,0,0,1-.149-2.795,2.934,2.934,0,0,1,2.967-1.981,7.584,7.584,0,0,1,2.638.566,5.943,5.943,0,0,1,2.937,2.135,2.779,2.779,0,0,1,.133,2.649C361.358,387.682,357.945,386.63,356.927,386.235Zm0,0" transform="translate(-220.569 -231.395)"/>
    <path id="Path_29" data-name="Path 29" class="cls-1" d="M68.844,289.079c-14.414,10.475-36.349,7.048-51.025-7.971C9.26,272.349,4.475,260.853,4.7,249.57a31.892,31.892,0,0,1,9.639-22.845A31.243,31.243,0,0,1,30.2,218.794a37.952,37.952,0,0,0,21.144-11.53,2.344,2.344,0,1,0-3.438-3.186,33.306,33.306,0,0,1-18.557,10.106,35.916,35.916,0,0,0-18.235,9.135,36.541,36.541,0,0,0-11.1,26.159c-.245,12.532,5.025,25.255,14.457,34.907,9.865,10.1,22.758,15.415,35.013,15.415a37.317,37.317,0,0,0,22.12-6.927,2.344,2.344,0,1,0-2.756-3.793Zm0,0" transform="translate(-0.001 -139.779)"/>
    <path id="Path_30" data-name="Path 30" class="cls-1" d="M209.335,102.17A22.943,22.943,0,0,0,216.1,83.912a37.41,37.41,0,0,0-6.15-17.281l14.959-14.959a2.343,2.343,0,1,0-3.313-3.315L180.122,89.833a18.054,18.054,0,0,0-9.944-9.945L219,31.062l9.946,9.946-.277.277a2.344,2.344,0,0,0,3.315,3.315l.593-.592a3.853,3.853,0,0,0,1.157.179l.121,0a3.891,3.891,0,0,0,2.791-1.315l2.488-2.825,2.668,2.668a2.344,2.344,0,0,0,3.316-3.315l-2.879-2.879,3.915-4.446,2.786,2.786a2.345,2.345,0,1,0,3.316-3.316l-3-3,3.886-4.412,2.018,2.019a2.345,2.345,0,0,0,3.316-3.316l-2.231-2.229,2.813-3.194a3.892,3.892,0,0,0-.167-5.312L247.933,1.141a3.89,3.89,0,0,0-5.312-.168l-3.2,2.814-2.232-2.231a2.344,2.344,0,0,0-3.313,3.317L235.9,6.891l-4.411,3.884-3.024-3.023a2.344,2.344,0,1,0-3.315,3.315l2.814,2.813L223.517,17.8l-2.878-2.878a2.344,2.344,0,1,0-3.315,3.315l2.668,2.668-2.826,2.488a3.866,3.866,0,0,0-1.149,4.028L193.405,50.029c-13.178-8.468-26.449-8.518-34.967,0a30.983,30.983,0,0,0-5.133,6.53,2.344,2.344,0,1,0,4.069,2.327,26.47,26.47,0,0,1,4.377-5.542c9.318-9.319,22.083-3.626,28.246.09l-25.2,25.206c-.444-.033-.891-.055-1.342-.055A17.973,17.973,0,1,0,181.422,96.56c0-.45-.022-.9-.055-1.342l25.175-25.175c3.677,6.2,9.225,19.065-.524,28.814a22.868,22.868,0,0,1-5.209,3.9,38.389,38.389,0,0,0-19.851,27.017,31.328,31.328,0,0,1-5.546,13.007,2.344,2.344,0,1,0,3.776,2.777,35.978,35.978,0,0,0,6.38-14.934,33.783,33.783,0,0,1,17.491-23.756,27.574,27.574,0,0,0,6.275-4.7ZM245.152,4.99l9.893,9.893L233.7,39.128,220.909,26.339ZM172.844,105.952a13.286,13.286,0,1,1,3.89-9.392A13.2,13.2,0,0,1,172.844,105.952Zm0,0" transform="translate(-100.012 -0.005)"/>
    <path id="Path_31" data-name="Path 31" class="cls-1" d="M58.586,329.588a8.124,8.124,0,0,0,0,11.475L82.521,365A8.114,8.114,0,0,0,94,353.523L70.061,329.586a8.114,8.114,0,0,0-11.475,0Zm32.094,27.251a3.426,3.426,0,0,1-4.844,4.844L61.9,337.748a3.426,3.426,0,1,1,4.844-4.846Zm0,0" transform="translate(-38.645 -224.944)"/>
    <path id="Path_32" data-name="Path 32" class="cls-1" d="M360.839,137.025a2.343,2.343,0,0,0,1.658-4l-5-5a2.345,2.345,0,0,0-3.316,3.316l5,5a2.338,2.338,0,0,0,1.658.686Zm0,0" transform="translate(-243.013 -87.539)"/>
    <path id="Path_33" data-name="Path 33" class="cls-1" d="M338.674,159.193a2.343,2.343,0,0,0,1.658-4l-5-5a2.344,2.344,0,1,0-3.315,3.316l5,5a2.335,2.335,0,0,0,1.657.686Zm0,0" transform="translate(-227.776 -102.779)"/>
    <path id="Path_34" data-name="Path 34" class="cls-1" d="M316.507,181.359a2.344,2.344,0,0,0,1.657-4l-5-5a2.344,2.344,0,1,0-3.315,3.315l5,5A2.336,2.336,0,0,0,316.507,181.359Zm0,0" transform="translate(-212.536 -118.016)"/>
    <path id="Path_35" data-name="Path 35" class="cls-1" d="M294.342,203.527a2.344,2.344,0,0,0,1.658-4l-5-5a2.344,2.344,0,1,0-3.315,3.315l5,5A2.335,2.335,0,0,0,294.342,203.527Zm0,0" transform="translate(-197.3 -133.256)"/>
    <path id="Path_36" data-name="Path 36" class="cls-1" d="M265.516,216.692a2.345,2.345,0,0,0,0,3.316l5,5a2.344,2.344,0,1,0,3.315-3.316l-5-5A2.343,2.343,0,0,0,265.516,216.692Zm0,0" transform="translate(-182.06 -148.495)"/>
    <path id="Path_37" data-name="Path 37" class="cls-1" d="M408.82,75.032a2.344,2.344,0,1,0,0,3.315A2.343,2.343,0,0,0,408.82,75.032Zm0,0" transform="translate(-278.296 -51.11)"/>
    <path id="Path_38" data-name="Path 38" class="cls-1" d="M426.807,92.864a2.344,2.344,0,1,0,0,3.315A2.345,2.345,0,0,0,426.807,92.864Zm0,0" transform="translate(-290.661 -63.369)"/>
    <path id="Path_39" data-name="Path 39" class="cls-1" d="M431.328,52.489a2.344,2.344,0,1,0,0,3.315A2.343,2.343,0,0,0,431.328,52.489Zm0,0" transform="translate(-293.769 -35.613)"/>
    <path id="Path_40" data-name="Path 40" class="cls-1" d="M449.328,70.341a2.344,2.344,0,1,0,0,3.315A2.343,2.343,0,0,0,449.328,70.341Zm0,0" transform="translate(-306.144 -47.885)"/>
    <path id="Path_41" data-name="Path 41" class="cls-1" d="M453.847,29.97a2.344,2.344,0,1,0,0,3.315A2.343,2.343,0,0,0,453.847,29.97Zm0,0" transform="translate(-309.25 -20.131)"/>
    <path id="Path_42" data-name="Path 42" class="cls-1" d="M471.844,47.818a2.344,2.344,0,1,0,0,3.315A2.343,2.343,0,0,0,471.844,47.818Zm0,0" transform="translate(-321.623 -32.401)"/>
  </g>
</svg>
